<?xml version="1.0" standalone="no"?>
<!DOCTYPE svg PUBLIC "-//W3C//DTD SVG 20010904//EN"
 "http://www.w3.org/TR/2001/REC-SVG-20010904/DTD/svg10.dtd">
<svg version="1.0" xmlns="http://www.w3.org/2000/svg"
 width="435.000000pt" height="435.000000pt" viewBox="0 0 435.000000 435.000000"
 preserveAspectRatio="xMidYMid meet">
<metadata>
Created by potrace 1.11, written by Peter Selinger 2001-2013
</metadata>
<g transform="translate(0.000000,435.000000) scale(0.100000,-0.100000)"
fill="#000000" stroke="none">
<path d="M775 4019 c2 -19 1 -28 -2 -21 -2 6 -9 10 -14 6 -5 -3 -9 5 -10 18
-1 23 -1 23 -9 -2 -4 -14 -8 -20 -9 -13 -1 14 -31 6 -31 -9 0 -5 6 -6 13 -2 9
5 9 3 -1 -7 -11 -12 -14 -12 -22 1 -7 11 -10 11 -10 2 0 -7 -6 -10 -12 -7 -7
4 -4 -1 7 -11 20 -16 20 -16 -2 -11 -13 3 -24 -1 -27 -8 -9 -24 -5 -2855 4
-2850 5 3 6 13 3 22 -5 11 -3 14 6 8 7 -4 11 -18 8 -32 -3 -17 -1 -23 9 -19 8
3 13 2 12 -2 -4 -14 23 -53 33 -47 5 4 9 2 9 -3 0 -5 16 -27 35 -49 26 -30 41
-40 60 -38 14 2 23 -1 19 -6 -3 -5 -10 -7 -15 -4 -16 11 -10 0 13 -19 15 -13
19 -14 15 -4 -3 8 1 15 8 15 8 0 13 -3 13 -6 -2 -12 14 -41 21 -36 11 6 52
-25 46 -35 -3 -4 2 -11 11 -14 10 -4 13 -2 8 7 -6 9 -5 9 8 0 8 -7 17 -10 21
-7 3 3 3 -5 0 -18 -4 -18 -3 -20 6 -8 10 13 11 13 12 0 1 -8 1 -19 0 -23 -1
-5 2 -6 7 -3 5 3 19 -6 32 -19 19 -20 26 -23 38 -12 13 10 14 9 2 -13 -12 -24
-12 -24 6 -8 17 14 21 15 38 2 11 -8 15 -14 10 -14 -6 0 -11 -6 -11 -13 0 -8
6 -14 13 -14 7 0 11 4 8 8 -2 4 -1 10 4 13 12 7 11 -27 0 -35 -5 -3 -2 -9 7
-12 9 -4 13 -3 10 3 -3 6 1 10 10 10 10 0 13 -5 9 -12 -5 -7 -2 -9 8 -5 21 8
31 -3 17 -19 -9 -11 -5 -11 20 -4 36 10 41 4 9 -11 -21 -9 -21 -9 5 -6 15 3
30 0 34 -6 3 -6 1 -7 -5 -3 -7 4 -12 2 -12 -3 0 -6 7 -11 15 -11 14 0 20 -12
16 -33 -1 -5 3 -6 8 -2 6 3 8 13 5 23 -4 12 -2 12 7 -3 8 -11 14 -23 15 -27 1
-5 2 -11 3 -15 0 -4 8 2 16 13 8 10 15 15 14 9 -3 -22 1 -45 9 -44 25 4 34 -2
23 -15 -10 -12 -8 -13 8 -9 12 3 18 10 14 16 -3 6 -1 7 5 3 6 -4 9 -13 5 -21
-6 -18 8 -19 26 -3 9 9 12 9 7 1 -7 -14 47 -56 59 -45 5 4 5 1 1 -6 -6 -11
-11 -11 -23 0 -15 12 -15 11 -2 -9 13 -21 15 -22 39 -6 18 12 22 12 14 2 -15
-18 -3 -52 19 -55 11 -1 14 2 10 9 -5 9 -3 9 8 1 8 -6 22 -10 32 -9 9 2 15 -1
11 -6 -3 -5 -10 -7 -15 -4 -5 4 -9 2 -9 -3 0 -19 26 -30 63 -27 20 2 37 -1 37
-6 0 -11 22 -7 33 6 5 6 7 3 3 -7 -3 -10 -1 -18 5 -18 6 0 7 -5 4 -11 -5 -6
-12 -4 -22 8 -13 17 -13 16 -3 -4 11 -24 45 -21 36 3 -3 8 -1 14 5 14 6 0 7 6
3 13 -6 9 -5 9 8 0 8 -7 19 -9 23 -5 5 4 5 1 1 -6 -4 -7 -12 -10 -17 -7 -5 4
-9 1 -9 -4 0 -15 12 -14 36 4 12 8 24 11 28 8 3 -3 6 -1 6 5 0 7 5 12 11 12 8
0 7 -5 -1 -15 -7 -9 -11 -17 -9 -18 2 -1 13 -9 24 -17 17 -12 18 -12 8 0 -18
20 -16 35 2 20 12 -10 18 -10 30 0 8 7 15 9 15 6 0 -4 8 -2 19 3 13 8 23 6 37
-5 18 -15 18 -15 -2 -5 -11 5 -26 6 -34 1 -8 -5 -18 -6 -24 -3 -5 3 -6 1 -2
-5 5 -8 13 -9 24 -3 21 11 56 -5 46 -21 -4 -6 -2 -8 4 -4 6 3 9 15 7 26 -2 11
1 20 6 20 6 0 7 5 4 11 -4 6 2 5 13 -2 16 -10 19 -17 11 -33 -9 -18 -8 -19 3
-5 7 9 21 15 31 13 9 -1 15 2 11 7 -3 5 -9 7 -13 5 -4 -3 -8 1 -8 9 0 15 9 12
42 -14 13 -10 16 -11 8 -1 -18 20 -16 29 5 25 9 -1 11 0 5 2 -7 3 -13 9 -13
15 0 6 -7 5 -18 -3 -15 -13 -16 -12 -4 3 8 9 21 14 30 11 10 -3 13 -1 7 4 -5
4 -16 19 -24 33 -13 23 -13 24 3 11 9 -8 20 -11 23 -7 4 4 1 11 -7 16 -14 9
-7 14 13 11 5 -1 5 3 2 9 -4 6 -13 9 -21 6 -8 -3 -14 -2 -14 3 0 5 10 12 23
15 21 6 21 7 5 20 -19 14 -25 32 -8 21 6 -3 10 -1 10 4 0 6 -4 11 -9 11 -5 0
-11 7 -15 15 -5 13 -2 14 17 4 20 -11 21 -11 7 5 -21 26 -22 54 -2 59 15 4 15
5 0 6 -10 1 -16 9 -15 22 1 19 2 19 14 3 7 -10 15 -15 18 -13 3 3 -3 14 -13
25 -9 11 -24 28 -32 39 -14 19 -14 19 3 6 9 -8 21 -11 24 -7 4 4 1 11 -7 16
-11 7 -12 10 -2 10 7 0 11 4 7 9 -3 5 -1 13 5 16 7 4 7 11 2 18 -5 7 -8 20 -7
30 2 11 -1 15 -8 10 -7 -3 -9 -3 -5 2 4 4 2 15 -5 23 -10 13 -9 14 2 8 10 -7
12 -3 6 14 -4 14 -3 20 3 16 5 -3 16 2 23 11 8 10 9 14 2 10 -14 -9 -26 9 -28
40 -1 28 3 29 22 6 13 -16 13 -16 3 5 -6 12 -16 22 -23 23 -7 0 -3 4 8 8 19 8
19 8 -2 15 -14 4 -20 12 -16 22 6 16 24 19 21 3 -2 -6 4 -14 12 -16 13 -4 13
-3 0 6 -13 10 -13 11 0 11 8 1 2 8 -13 16 -26 14 -29 34 -4 34 7 0 6 -4 -3
-10 -8 -5 -10 -10 -4 -10 6 0 18 8 25 17 8 9 9 14 4 11 -13 -8 -24 -1 -45 27
-14 19 -14 19 3 6 9 -8 21 -11 24 -7 4 4 1 11 -7 16 -13 8 -13 10 -1 10 8 0
11 3 8 7 -4 3 -1 13 6 21 9 13 9 14 -1 8 -7 -4 -12 -2 -12 4 0 6 -5 8 -12 4
-6 -4 -8 -3 -4 4 3 6 15 9 26 7 12 -2 18 0 15 6 -4 5 -11 6 -17 3 -6 -4 -9 -1
-6 7 3 8 1 22 -3 31 -6 11 -5 19 3 24 6 4 8 3 4 -4 -3 -6 -2 -13 3 -16 5 -4 8
2 6 11 -1 10 -10 17 -19 17 -24 -2 -19 13 7 20 21 6 21 7 5 20 -24 18 -23 26
3 21 12 -3 18 -1 15 3 -4 4 -13 7 -19 7 -5 0 -12 6 -15 14 -3 8 0 11 6 8 5 -4
16 1 23 10 8 10 9 14 2 10 -14 -9 -26 9 -28 40 -1 28 3 29 22 6 13 -16 13 -16
4 4 -6 12 -16 24 -23 26 -8 3 -6 6 5 6 9 1 17 6 17 12 0 5 -4 8 -9 5 -4 -3
-17 1 -27 9 -18 15 -18 15 1 8 19 -7 19 -6 3 19 -13 19 -15 29 -6 34 6 4 8 3
4 -4 -3 -6 -2 -13 3 -16 5 -3 11 3 14 14 3 11 2 19 -2 18 -24 -3 -33 4 -28 23
5 17 3 18 -11 7 -14 -11 -15 -10 -9 5 4 10 3 16 -1 14 -10 -7 -32 19 -24 29 4
5 -1 2 -11 -5 -9 -8 -20 -11 -24 -7 -3 3 0 6 8 6 10 1 9 4 -4 11 -9 5 -21 8
-26 5 -5 -4 -7 2 -5 11 6 20 -47 49 -71 39 -8 -3 -17 0 -21 6 -4 6 -3 8 4 4 6
-3 13 -2 17 4 3 5 -1 10 -9 10 -9 0 -16 5 -16 11 0 8 -4 9 -13 0 -19 -15 -30
-1 -14 17 8 10 8 13 1 9 -7 -4 -15 0 -18 9 -5 14 -9 14 -22 3 -14 -11 -15 -10
-12 7 2 14 -2 19 -19 18 -17 -1 -23 4 -24 20 0 21 -1 21 -9 1 -8 -19 -9 -19
-9 3 -1 24 -15 29 -27 10 -5 -7 -3 -8 6 -3 9 5 11 4 6 -4 -4 -6 -12 -9 -17 -5
-6 3 -8 8 -5 11 3 3 -2 12 -10 20 -8 8 -12 18 -10 22 3 4 -5 7 -17 7 -15 -1
-21 4 -19 14 2 8 0 12 -4 7 -4 -4 -18 0 -31 9 -14 8 -34 17 -45 19 -11 3 -23
7 -27 11 -3 4 2 4 11 1 10 -3 19 -3 22 1 3 4 -5 9 -16 9 -12 1 -26 7 -32 14
-8 9 -7 10 3 4 10 -6 12 -4 7 4 -6 9 -11 9 -22 0 -8 -6 -17 -9 -21 -5 -3 3 0
6 8 7 8 1 3 4 -11 8 -17 5 -24 13 -22 27 3 18 3 18 -12 -1 -15 -20 -15 -20
-11 2 2 15 -1 20 -9 17 -8 -3 -16 2 -20 11 -3 9 -11 13 -17 9 -7 -4 -6 2 2 17
11 22 11 23 -5 10 -16 -13 -17 -13 -14 4 1 10 -4 20 -12 22 -13 4 -13 3 0 -6
9 -7 10 -11 3 -11 -21 0 -24 18 -6 30 17 10 16 11 -2 7 -15 -3 -20 1 -20 19 0
12 4 20 8 17 5 -3 8 3 7 13 -4 32 0 45 9 39 5 -3 12 -1 15 4 7 10 -13 9 -31
-2 -6 -4 -15 -2 -19 4 -4 8 -3 9 5 5 8 -5 10 0 7 18 -3 18 0 26 9 26 8 0 17 5
21 11 4 7 0 9 -13 5 -15 -5 -19 -1 -19 19 0 16 5 24 12 21 8 -3 11 3 9 16 -3
12 1 29 7 37 10 13 10 14 -2 4 -18 -17 -38 -17 -22 -1 15 15 16 32 1 23 -6 -4
-5 2 2 13 7 12 17 18 23 15 5 -3 6 -1 2 6 -4 6 -11 9 -16 6 -4 -3 -14 3 -21
13 -13 15 -12 16 4 3 20 -15 23 -2 5 18 -10 11 -10 13 0 7 6 -4 12 -2 12 4 0
6 5 8 11 5 6 -4 5 2 -2 13 -7 12 -16 19 -19 17 -4 -2 -7 2 -7 10 0 8 4 12 9 9
4 -3 8 2 8 11 0 10 -5 13 -12 9 -9 -5 -9 -2 1 9 11 13 11 17 1 17 -8 0 -10 3
-7 7 4 3 1 13 -5 22 -7 9 -3 8 10 -4 l23 -19 -10 27 c-6 15 -7 27 -3 27 4 0 0
5 -8 10 -13 8 -13 10 2 10 12 0 15 5 11 17 -4 11 -3 14 5 9 7 -4 12 -2 12 4 0
7 -7 10 -15 6 -8 -3 -15 -2 -16 2 0 4 -2 15 -4 25 -2 9 1 17 7 17 6 0 8 -7 4
-15 -4 -13 -2 -14 14 -5 19 10 28 23 12 17 -6 -2 -13 8 -11 16 0 1 2 13 5 26
4 20 2 22 -11 11 -18 -15 -20 -35 -3 -24 7 5 8 3 3 -5 -5 -9 -11 -9 -17 -3 -7
7 -4 19 9 36 19 23 21 24 38 8 18 -16 18 -16 1 11 -17 28 -17 28 3 17 17 -9
22 -8 27 5 3 8 10 12 15 9 5 -3 17 -1 26 5 15 8 12 9 -12 6 -16 -2 -34 -4 -38
-4 -5 -1 -5 -7 -1 -13 4 -7 3 -9 -1 -5 -16 14 -14 36 3 30 11 -5 13 -3 7 8 -7
11 -5 11 10 -1 16 -14 17 -13 11 7 -4 12 -2 24 3 28 6 3 8 0 5 -8 -3 -8 -1
-18 5 -22 6 -3 11 -1 11 4 0 6 5 11 11 11 5 0 7 -6 3 -12 -5 -7 5 -3 20 10 24
18 32 20 45 10 14 -11 14 -11 4 3 -7 9 -9 20 -5 24 4 5 -5 1 -20 -8 -16 -10
-28 -13 -28 -7 0 5 5 10 10 10 7 0 7 7 0 23 -10 21 -10 21 4 3 15 -18 42 -13
30 6 -4 6 -2 8 4 4 6 -3 17 1 25 9 18 17 27 19 27 6 0 -5 -9 -13 -20 -16 -11
-4 -17 -11 -14 -17 4 -7 2 -8 -4 -4 -18 11 -14 0 5 -15 9 -8 14 -9 11 -4 -4 6
-3 17 2 25 7 12 11 12 27 0 13 -10 15 -10 6 -1 -12 14 -7 41 9 41 5 0 7 -4 3
-9 -3 -5 -1 -13 5 -16 6 -4 10 -3 9 2 -4 14 13 43 22 38 4 -3 6 3 4 14 -2 14
1 18 11 14 7 -3 11 -9 8 -14 -3 -5 0 -9 5 -9 14 0 14 13 0 27 -8 8 -7 13 2 18
8 5 10 4 5 -3 -4 -7 -1 -12 8 -12 9 0 15 3 15 8 -4 21 3 33 15 30 8 -2 14 2
13 7 -1 6 -6 9 -11 7 -5 -2 -4 4 4 12 14 18 25 22 15 6 -3 -5 9 -16 27 -25
l33 -16 -25 21 c-14 12 -20 19 -14 16 14 -7 56 23 49 35 -4 5 -1 9 5 9 7 0 10
-6 7 -13 -3 -8 -1 -20 4 -28 8 -12 10 -12 8 1 -3 27 1 40 12 40 5 0 8 -4 4 -9
-3 -5 -1 -12 4 -15 5 -3 7 7 6 23 -2 21 1 28 11 24 8 -3 11 -10 7 -17 -3 -6 3
-3 14 7 11 9 23 15 26 12 4 -3 5 -2 3 1 -2 3 7 17 20 31 18 19 27 23 37 15 10
-8 13 -6 14 11 2 15 0 18 -6 8 -5 -7 -11 -9 -14 -5 -3 5 1 14 8 21 10 10 14 9
19 -3 5 -13 10 -13 36 2 16 10 27 20 25 22 -3 3 -11 -1 -20 -8 -11 -10 -15
-10 -15 0 0 6 9 14 20 17 11 3 20 10 20 15 0 5 -6 6 -12 2 -9 -5 -8 -2 1 9 9
12 21 15 35 11 19 -6 19 -4 -4 16 -24 22 -24 22 -2 16 13 -5 22 -3 22 3 0 6
-5 11 -11 11 -6 0 -7 5 -2 13 12 19 12 36 1 44 -7 4 -8 1 -3 -7 5 -9 4 -11 -4
-6 -6 4 -9 12 -5 17 3 5 9 7 14 4 5 -3 12 0 16 6 5 8 3 9 -6 4 -8 -5 -11 -3
-8 6 3 8 1 22 -3 31 -6 11 -5 19 3 24 6 4 8 3 5 -3 -4 -6 1 -17 10 -24 15 -12
16 -12 8 1 -6 8 -10 20 -10 25 0 6 -8 9 -18 9 -25 -2 -21 13 6 20 21 6 21 7 5
20 -10 7 -18 19 -18 27 0 11 2 11 10 -1 8 -12 10 -12 10 -1 0 8 -8 20 -17 27
-15 12 -16 13 -2 8 10 -3 20 0 25 7 4 7 3 10 -4 5 -6 -3 -13 -2 -17 4 -4 6
-11 8 -16 5 -15 -10 -10 2 8 16 11 10 14 10 9 2 -4 -7 -2 -13 3 -13 6 0 11 7
11 15 0 14 -13 20 -34 16 -5 -1 -4 5 4 13 7 9 18 16 24 16 6 0 4 -5 -4 -10 -8
-5 -10 -10 -5 -10 6 0 16 4 23 9 11 6 10 10 -5 16 -10 5 -22 7 -26 6 -5 -1 -6
3 -2 9 3 6 10 8 14 6 15 -10 7 29 -8 42 -15 11 -14 12 0 6 10 -3 20 0 25 7 4
7 3 10 -4 5 -6 -3 -13 -2 -17 4 -4 6 -11 8 -16 5 -15 -10 -10 2 8 16 11 10 14
10 9 2 -4 -7 -2 -13 3 -13 6 0 11 9 11 19 0 15 -5 19 -21 16 -17 -3 -19 -2 -9
10 7 8 16 12 21 9 5 -3 9 -1 9 5 0 5 -6 12 -12 15 -9 3 -7 10 7 22 17 14 17
16 2 11 -13 -5 -17 -2 -15 11 2 9 -2 16 -7 15 -6 -1 -11 8 -12 20 0 12 1 16 4
9 3 -7 14 -17 26 -23 21 -11 21 -10 -1 11 -13 12 -21 29 -18 37 3 8 2 12 -3 8
-5 -3 -11 -2 -14 2 -2 5 -2 2 0 -5 1 -7 -2 -10 -7 -7 -6 3 -10 15 -10 27 0 15
-5 19 -20 15 -13 -3 -20 0 -20 9 0 10 -6 11 -26 4 -32 -13 -43 -13 -24 0 13 8
12 10 -3 10 -10 0 -16 4 -13 9 7 10 -34 8 -52 -3 -5 -3 -13 0 -15 6 -3 8 -6 5
-6 -6 -1 -13 3 -16 17 -11 26 11 41 11 39 1 -1 -5 -19 -10 -40 -11 -27 -1 -37
2 -33 11 3 9 0 11 -11 7 -10 -4 -14 -2 -10 4 3 5 -1 10 -9 10 -10 0 -11 -4 -4
-11 14 -14 13 -23 -5 -23 -8 0 -12 3 -10 7 2 3 -6 12 -18 20 -20 12 -21 11 -9
-2 10 -13 10 -17 -4 -22 -9 -3 -22 -2 -29 4 -10 8 -15 8 -20 -1 -6 -8 -10 -7
-17 5 -5 9 -6 21 -2 28 5 7 3 8 -5 3 -7 -4 -11 -15 -8 -24 2 -11 -1 -18 -10
-18 -8 0 -12 6 -9 13 3 9 -1 11 -11 7 -12 -5 -14 -3 -8 7 5 9 4 11 -4 6 -8 -5
-9 -12 -2 -20 7 -8 5 -12 -9 -12 -10 0 -16 4 -14 8 3 4 -5 7 -18 5 -18 -1 -23
3 -21 18 1 19 1 19 -11 3 -7 -10 -16 -15 -19 -11 -4 3 -7 1 -7 -6 0 -8 6 -11
16 -7 8 3 12 2 9 -3 -3 -6 -14 -9 -25 -8 -15 1 -19 7 -15 22 3 11 2 14 -1 8
-3 -7 -9 -13 -14 -13 -5 0 -10 6 -13 13 -2 6 -3 3 -1 -9 2 -13 -2 -21 -11 -21
-8 0 -12 4 -10 8 3 4 -2 10 -11 13 -8 3 -12 11 -8 17 4 8 3 9 -5 5 -9 -6 -9
-11 -1 -21 13 -16 -17 -30 -35 -15 -8 6 -16 6 -25 -3 -10 -10 -12 -9 -7 4 3 9
1 22 -4 30 -7 11 -9 11 -9 1 0 -7 -4 -11 -9 -7 -5 3 -12 1 -16 -5 -3 -5 -11
-10 -17 -10 -6 0 -5 7 3 18 13 15 12 16 -4 3 -11 -9 -14 -17 -8 -25 7 -8 4
-12 -9 -12 -10 0 -16 4 -14 8 3 4 0 8 -6 8 -6 0 -8 5 -4 12 4 7 3 8 -5 4 -6
-4 -9 -12 -5 -17 3 -6 -5 -7 -22 -3 -16 4 -25 3 -21 -3 3 -5 -5 -9 -19 -9 -13
0 -24 3 -24 7 0 4 -10 5 -22 1 -11 -3 -19 -1 -16 4 4 5 -13 7 -38 5 -24 -1
-42 -6 -40 -10 3 -4 -6 -7 -20 -7 -13 0 -24 3 -24 7 0 4 -10 5 -22 1 -12 -3
-19 -1 -15 5 8 12 -53 4 -73 -10 -8 -6 -12 -7 -8 -3 10 12 -29 39 -42 31 -13
-8 -13 -25 1 -25 5 0 7 5 4 10 -3 6 -2 10 4 10 12 0 25 -20 14 -21 -29 -5 -53
-6 -53 -2 0 2 5 14 11 26 9 20 9 20 -4 5 -8 -10 -20 -18 -26 -18 -7 0 -10 -4
-7 -8 3 -5 -1 -9 -9 -9 -8 0 -12 4 -9 9 3 4 1 8 -5 8 -5 0 -11 6 -14 13 -2 6
-3 4 -1 -6 1 -10 -3 -16 -9 -14 -7 2 -12 9 -12 15 0 5 -3 13 -7 17 -4 4 -5 -8
-3 -26z m618 -2 c3 -8 -1 -14 -9 -14 -15 0 -18 9 -7 20 9 9 10 9 16 -6z m727
-301 c0 -2 -7 -7 -16 -10 -8 -3 -12 -2 -9 4 6 10 25 14 25 6z m-11 -270 c9
-11 9 -16 -1 -22 -7 -4 -10 -4 -6 1 4 4 3 14 -3 22 -6 7 -9 13 -6 13 2 0 10
-6 16 -14z m-149 -269 c0 -7 -4 -6 -10 3 -9 14 -11 13 -14 -9 -3 -24 -23 -32
-37 -14 -13 16 -12 17 3 5 11 -9 18 -10 23 -2 3 5 1 10 -6 10 -7 0 -4 6 6 14
21 15 35 12 35 -7z m-143 -73 c-3 -3 -12 -4 -19 -1 -8 3 -5 6 6 6 11 1 17 -2
13 -5z m-163 -128 c-3 -9 -10 -13 -15 -10 -5 3 -3 11 4 19 15 16 19 13 11 -9z
m151 -1216 c-3 -5 -12 -10 -18 -10 -7 0 -6 4 3 10 19 12 23 12 15 0z m170
-119 c-3 -2 -11 1 -18 7 -8 7 -18 8 -22 4 -5 -4 -5 -1 -1 5 5 10 11 10 26 1
11 -7 17 -14 15 -17z m150 -291 c3 -6 -1 -7 -9 -4 -18 7 -21 14 -7 14 6 0 13
-4 16 -10z m-16 -144 c9 -11 9 -16 -1 -22 -7 -4 -10 -4 -6 1 4 4 3 14 -3 22
-6 7 -9 13 -6 13 2 0 10 -6 16 -14z m11 -70 c0 -3 -4 -8 -10 -11 -5 -3 -10 -1
-10 4 0 6 5 11 10 11 6 0 10 -2 10 -4z m-1334 -143 c0 -10 4 -18 11 -18 16 0
26 -12 15 -19 -13 -8 -46 30 -37 43 9 16 13 13 11 -6z m1339 -123 c3 -6 -1 -7
-9 -4 -18 7 -21 14 -7 14 6 0 13 -4 16 -10z m-1071 -85 c3 -8 11 -13 18 -11 7
1 10 1 5 -1 -4 -3 -5 -9 -1 -14 10 -17 -2 -9 -26 16 -13 14 -19 25 -13 25 6 0
13 -7 17 -15z m1064 -53 c-6 -7 -14 -10 -17 -6 -3 4 0 9 6 11 9 3 8 11 -3 31
l-16 27 20 -25 c15 -18 18 -28 10 -38z m-545 -332 c-3 -12 -8 -19 -11 -16 -5
6 5 36 12 36 2 0 2 -9 -1 -20z m77 -50 c0 -5 -5 -10 -11 -10 -5 0 -7 5 -4 10
3 6 8 10 11 10 2 0 4 -4 4 -10z m260 -30 c0 -5 -2 -10 -4 -10 -3 0 -8 5 -11
10 -3 6 -1 10 4 10 6 0 11 -4 11 -10z"/>
<path d="M1260 4046 c0 -2 7 -6 15 -10 8 -3 15 -1 15 4 0 6 -7 10 -15 10 -8 0
-15 -2 -15 -4z"/>
<path d="M1760 4044 c0 -13 18 -39 24 -34 2 3 -2 14 -10 24 -8 11 -14 16 -14
10z"/>
<path d="M1046 4032 c-3 -5 1 -9 9 -9 8 0 15 4 15 9 0 4 -4 8 -9 8 -6 0 -12
-4 -15 -8z"/>
<path d="M1081 4024 c0 -11 3 -14 6 -6 3 7 2 16 -1 19 -3 4 -6 -2 -5 -13z"/>
<path d="M1206 4032 c-3 -5 1 -9 9 -9 8 0 15 4 15 9 0 4 -4 8 -9 8 -6 0 -12
-4 -15 -8z"/>
<path d="M1241 4024 c0 -11 3 -14 6 -6 3 7 2 16 -1 19 -3 4 -6 -2 -5 -13z"/>
<path d="M3456 4027 c3 -10 9 -15 12 -12 3 3 0 11 -7 18 -10 9 -11 8 -5 -6z"/>
<path d="M1450 4020 c0 -5 5 -10 11 -10 5 0 7 5 4 10 -3 6 -8 10 -11 10 -2 0
-4 -4 -4 -10z"/>
<path d="M2435 4020 c6 -10 1 -11 -21 -6 -18 4 -24 3 -16 -2 11 -7 9 -10 -6
-14 -16 -5 -19 -2 -15 11 5 13 3 14 -8 4 -7 -7 -17 -13 -22 -13 -4 0 -5 6 -1
13 5 8 2 8 -9 -2 -13 -10 -20 -11 -31 -2 -12 10 -13 8 -9 -8 3 -13 1 -21 -6
-21 -7 0 -9 -5 -5 -12 6 -10 4 -10 -8 0 -10 8 -19 9 -22 3 -3 -5 0 -12 6 -14
8 -3 6 -6 -4 -6 -10 -1 -18 -5 -18 -11 0 -5 8 -7 18 -4 16 5 16 5 -1 -6 -9 -6
-22 -8 -28 -4 -8 4 -8 1 0 -13 7 -14 7 -23 -1 -31 -8 -8 -7 -18 5 -36 11 -17
13 -27 6 -31 -6 -4 -13 -4 -16 -1 -4 3 -1 6 6 6 7 0 9 5 5 11 -4 8 -9 7 -15
-2 -4 -8 0 -24 12 -41 18 -24 18 -29 5 -34 -12 -5 -13 -10 -5 -25 9 -18 5 -23
-14 -20 -5 1 -6 -3 -2 -9 3 -6 10 -8 15 -5 4 3 11 -2 14 -11 3 -8 2 -12 -4 -9
-19 12 -30 -5 -18 -30 6 -13 15 -22 21 -18 6 3 7 1 3 -6 -4 -6 -12 -9 -17 -6
-5 4 -9 2 -9 -4 0 -5 6 -12 13 -14 9 -4 9 -6 0 -6 -7 -1 -10 -8 -7 -16 4 -8
11 -12 18 -9 6 3 3 -1 -6 -9 -13 -10 -15 -16 -6 -25 7 -7 8 -12 3 -12 -6 0 -3
-5 5 -10 10 -6 11 -10 3 -10 -7 0 -13 -9 -13 -21 0 -13 -4 -18 -12 -13 -7 4
-8 3 -4 -5 4 -6 11 -9 16 -6 5 3 11 1 15 -5 3 -5 -1 -10 -9 -10 -8 0 -18 -5
-22 -12 -5 -7 -3 -8 5 -4 8 5 12 3 10 -5 -3 -28 1 -40 14 -34 6 4 4 0 -5 -8
-10 -8 -15 -17 -11 -20 12 -13 8 -77 -4 -77 -7 0 -13 -5 -13 -11 0 -5 3 -8 8
-6 4 3 14 -2 22 -11 13 -14 12 -15 -4 -9 -16 6 -17 5 -6 -8 10 -12 9 -15 -6
-15 -11 0 -15 -3 -8 -8 6 -4 13 -17 17 -30 4 -19 2 -22 -11 -17 -11 4 -9 -2 7
-19 21 -22 22 -26 8 -32 -13 -4 -14 -10 -7 -24 14 -26 13 -30 -7 -31 -11 0
-13 -3 -5 -6 6 -2 12 -15 12 -27 0 -12 6 -28 13 -35 7 -9 7 -11 1 -8 -16 9
-25 -18 -11 -32 8 -8 6 -11 -9 -12 -10 0 -13 -3 -6 -6 6 -2 12 -14 12 -24 0
-11 5 -30 11 -42 9 -19 7 -18 -10 3 l-21 25 16 -40 c15 -37 15 -38 -2 -25 -17
14 -17 14 -1 -11 10 -14 14 -28 11 -32 -4 -3 3 -4 16 -2 19 4 20 2 8 -12 -9
-12 -9 -15 0 -9 7 4 12 1 12 -8 0 -14 18 -21 42 -17 5 0 7 -2 7 -7 -1 -4 -1
-14 0 -22 1 -13 3 -13 10 0 6 8 7 18 4 24 -3 5 -1 6 5 2 6 -4 9 -12 6 -19 -2
-7 4 -24 16 -37 11 -13 20 -19 20 -14 0 6 -5 15 -12 22 -7 7 -8 12 -4 12 5 0
15 -8 22 -17 9 -14 10 -21 1 -32 -7 -9 -1 -7 16 4 20 13 27 14 25 4 -2 -7 3
-14 10 -15 6 -1 17 -2 22 -3 6 0 10 -6 10 -12 0 -8 -5 -8 -15 1 -8 7 -15 9
-15 5 0 -4 -8 -1 -17 6 -13 11 -15 11 -9 1 12 -20 49 -31 64 -19 7 6 12 6 11
1 -3 -14 12 -44 23 -44 5 0 7 4 4 8 -3 5 1 9 8 9 8 0 11 -8 8 -21 -4 -17 -2
-19 9 -8 7 6 18 12 23 12 6 0 4 -5 -4 -10 -11 -7 -11 -10 -2 -10 7 0 10 -5 6
-12 -4 -6 -3 -8 4 -4 6 3 15 -1 20 -10 5 -9 13 -15 18 -15 5 1 9 -3 9 -9 0 -5
5 -10 10 -9 6 0 8 8 7 17 -3 14 -1 15 9 4 11 -10 11 -16 0 -35 -13 -19 -12
-21 1 -10 8 7 19 9 23 5 5 -4 5 -2 2 4 -3 6 0 11 7 11 8 0 12 -9 10 -21 -3
-12 -2 -15 2 -8 6 13 25 17 23 5 -3 -21 2 -33 14 -30 6 1 11 -4 10 -10 -2 -7
2 -13 7 -13 6 0 10 8 11 18 0 10 4 6 11 -11 8 -24 12 -26 26 -15 9 7 13 8 10
3 -4 -6 -3 -17 3 -25 7 -12 9 -11 9 5 1 15 4 13 14 -10 8 -20 15 -25 20 -17 4
7 12 10 17 6 6 -4 6 -11 -2 -20 -10 -12 -9 -13 7 -7 15 5 17 4 9 -8 -5 -8 -3
-7 6 3 15 16 18 16 23 2 4 -10 13 -14 22 -10 9 3 12 2 9 -4 -4 -6 3 -22 14
-36 11 -15 18 -30 16 -34 -3 -5 0 -12 6 -16 8 -4 9 -3 5 4 -4 7 -2 12 3 12 14
0 14 -13 -1 -28 -9 -9 -9 -12 2 -12 13 0 13 -2 0 -10 -13 -8 -12 -10 3 -10 10
0 15 -5 12 -10 -4 -6 -2 -17 4 -24 8 -9 7 -13 -4 -13 -8 0 -11 5 -8 11 3 6 0
5 -7 -1 -12 -11 -11 -16 6 -29 15 -13 16 -15 2 -10 -12 3 -15 1 -11 -9 3 -8 9
-13 13 -10 5 3 12 0 16 -6 5 -8 3 -9 -6 -4 -10 6 -12 4 -7 -9 4 -10 3 -15 -3
-11 -6 3 -10 -1 -10 -9 0 -10 6 -13 18 -10 13 5 14 4 3 -4 -7 -5 -10 -15 -7
-21 10 -15 -7 -14 -24 2 -12 10 -12 9 -2 -4 6 -9 8 -20 4 -24 -4 -5 1 -5 10
-2 10 3 20 1 24 -5 4 -7 3 -8 -4 -4 -7 4 -12 3 -12 -3 0 -5 5 -13 11 -17 6 -3
7 -9 2 -13 -11 -8 -34 -61 -26 -61 3 0 12 8 20 18 8 9 11 11 7 3 -13 -27 -22
-81 -13 -87 5 -3 7 -10 3 -15 -3 -5 0 -17 8 -26 8 -11 9 -14 1 -10 -9 6 -11
-2 -9 -28 2 -19 -1 -35 -6 -35 -6 0 -7 8 -3 18 4 12 3 14 -5 6 -12 -12 -3 -47
10 -39 5 3 12 0 16 -6 5 -8 3 -9 -6 -4 -10 6 -12 4 -7 -9 4 -10 3 -15 -3 -11
-6 3 -10 -1 -10 -10 0 -10 -5 -13 -12 -9 -7 5 -8 3 -3 -5 5 -9 10 -10 18 -2 6
6 16 11 22 11 5 0 4 -4 -3 -8 -7 -5 -14 -24 -17 -43 -6 -54 -16 -79 -32 -79
-11 0 -14 -7 -9 -27 5 -21 4 -24 -4 -13 -9 13 -14 7 -11 -13 0 -4 -2 -6 -6 -6
-5 1 -11 0 -15 -1 -13 -4 -27 -7 -39 -9 -5 0 -7 -7 -3 -13 6 -10 4 -10 -8 0
-14 12 -16 10 -11 -10 5 -23 5 -23 -11 -3 -10 11 -15 14 -11 7 3 -7 0 -12 -8
-12 -8 0 -21 -8 -28 -17 -12 -14 -12 -15 -1 -9 11 7 12 4 3 -13 -13 -24 -23
-29 -15 -7 5 13 1 14 -35 7 -2 -1 3 -8 10 -18 13 -15 12 -15 -7 -5 -18 10 -21
9 -20 -6 1 -12 -6 -17 -25 -16 -22 0 -26 -4 -24 -23 1 -16 -1 -20 -9 -15 -17
13 -41 8 -41 -8 0 -9 -11 -16 -28 -18 -21 -3 -27 -8 -23 -19 5 -12 1 -14 -14
-10 -18 5 -19 3 -8 -10 12 -15 11 -15 -9 -4 -20 10 -22 9 -16 -6 5 -13 3 -15
-11 -10 -14 5 -17 3 -12 -8 5 -14 -5 -20 -27 -16 -13 2 -48 -19 -43 -27 2 -4
-3 -13 -11 -21 -13 -12 -14 -11 -8 9 6 20 5 21 -8 9 -8 -8 -13 -17 -11 -20 2
-4 -7 -10 -21 -13 -14 -4 -25 -12 -25 -20 0 -7 -7 -19 -16 -27 -13 -10 -17
-10 -25 2 -7 11 -9 11 -9 -4 0 -10 -5 -15 -10 -12 -6 4 -7 12 -4 18 4 7 3 9
-1 4 -15 -13 -17 -49 -3 -41 8 4 10 3 5 -2 -5 -5 -18 -9 -29 -9 -12 0 -23 -7
-25 -15 -4 -12 -3 -12 5 -2 7 11 10 11 15 -3 4 -9 3 -13 -2 -10 -5 3 -13 0
-17 -6 -3 -6 0 -15 7 -20 10 -6 7 -9 -11 -9 -18 0 -21 -3 -11 -9 7 -5 11 -13
7 -19 -3 -6 2 -15 11 -21 16 -9 15 -11 -7 -11 -23 -1 -23 -2 -5 -10 11 -5 15
-9 8 -9 -7 -1 -10 -8 -6 -18 5 -12 3 -14 -7 -8 -10 6 -10 3 1 -13 11 -15 13
-35 9 -69 -4 -35 -1 -51 9 -59 11 -9 12 -12 1 -19 -9 -5 -11 -4 -6 3 4 7 2 12
-3 12 -6 0 -11 -9 -11 -21 0 -11 4 -18 8 -15 5 3 9 -1 9 -9 0 -8 -4 -12 -9 -9
-15 10 -8 -9 9 -21 13 -9 13 -14 3 -20 -9 -5 -11 -4 -6 3 4 7 2 12 -3 12 -6 0
-11 -9 -11 -21 0 -11 3 -18 8 -16 4 3 6 -29 5 -71 -1 -49 3 -80 10 -85 8 -6 6
-7 -5 -3 -20 6 -25 -10 -5 -17 9 -4 8 -6 -2 -6 -11 -1 -10 -6 3 -25 11 -18 13
-27 4 -32 -7 -5 -8 -3 -3 6 5 9 4 11 -3 6 -20 -12 -13 -29 8 -23 11 3 18 1 15
-3 -3 -5 -1 -11 5 -15 6 -4 7 -11 4 -17 -5 -7 -1 -9 9 -5 9 3 16 3 16 -1 -4
-23 4 -24 17 -2 14 23 14 23 9 3 -5 -17 -2 -23 10 -23 10 0 13 5 9 12 -4 7 -3
8 5 4 9 -6 9 -11 0 -22 -8 -10 -8 -14 0 -14 6 0 11 5 11 11 0 7 21 10 60 7 48
-2 60 0 61 12 1 8 5 4 9 -10 7 -22 8 -22 10 -5 1 11 2 24 1 29 -1 5 4 4 12 -2
8 -7 18 -8 22 -4 5 4 5 1 1 -6 -4 -7 -11 -10 -15 -8 -4 3 -8 -1 -8 -9 0 -11 4
-12 13 -4 7 5 36 9 66 7 46 -3 53 -5 50 -23 -2 -17 0 -17 11 4 10 16 16 20 22
12 5 -9 11 -8 24 3 10 9 21 13 26 9 4 -5 5 -2 1 5 -6 10 10 17 35 14 4 -1 6
11 5 27 -1 16 3 28 11 28 6 0 11 -3 9 -6 -2 -3 3 -13 12 -21 14 -13 15 -12 9
4 -6 14 -3 17 8 12 9 -3 18 1 21 9 4 8 11 12 18 8 6 -3 3 2 -6 13 -16 19 -16
20 3 21 10 1 17 -2 14 -8 -9 -14 5 -11 21 5 9 9 10 17 4 21 -5 3 -10 1 -10 -5
0 -6 -5 -8 -11 -4 -18 10 11 23 43 19 16 -2 26 1 23 6 -4 5 -1 9 4 9 6 0 11 5
11 12 0 6 -8 4 -19 -6 -14 -13 -21 -14 -27 -5 -4 8 -3 10 4 5 7 -4 12 -3 12 3
0 6 11 13 25 17 14 3 22 10 20 15 -3 4 -13 6 -23 3 -14 -5 -14 -4 -2 4 8 6 19
8 25 4 18 -11 45 -12 45 -1 0 5 5 7 12 3 7 -4 8 -3 4 5 -4 7 2 15 16 20 13 6
17 10 11 10 -7 1 -13 5 -13 10 0 5 8 8 18 7 12 -1 16 5 14 24 -2 19 0 22 8 10
5 -8 10 -11 10 -6 0 5 6 3 13 -3 16 -13 28 -5 20 15 -3 8 -10 11 -17 7 -6 -3
-7 -2 -3 3 5 5 12 9 15 10 4 0 23 8 42 16 37 17 55 15 44 -5 -4 -7 -3 -8 1 -4
12 10 16 39 5 32 -5 -3 -8 3 -7 14 1 15 4 17 18 8 10 -6 15 -15 12 -21 -4 -5
-1 -6 6 -1 9 5 7 13 -8 29 -16 17 -18 23 -7 23 8 0 13 -4 11 -8 -3 -4 1 -9 9
-12 15 -6 16 9 3 31 -5 6 -4 12 2 12 5 0 13 -10 16 -21 5 -16 9 -18 15 -8 7
10 12 10 27 -2 16 -13 17 -12 5 2 -8 11 -9 24 -4 39 6 15 11 19 16 12 8 -13
36 -5 36 10 0 5 -4 7 -8 4 -4 -2 -14 -1 -22 4 -10 6 -2 8 25 6 37 -3 79 17 55
26 -17 6 6 28 32 30 15 1 24 7 21 14 -2 7 0 15 6 18 6 4 8 13 5 21 -4 8 -11
12 -17 8 -6 -4 -7 -1 -2 7 6 10 11 10 20 -3 15 -21 25 -22 25 -1 0 14 1 14 16
0 17 -17 26 -21 22 -8 -2 4 -1 7 2 7 3 1 15 10 28 20 12 11 28 20 35 20 7 0
12 7 12 15 0 8 5 15 12 15 6 0 14 3 18 7 12 12 -23 2 -39 -11 -8 -7 -20 -10
-25 -6 -7 3 -8 0 -5 -9 5 -14 -6 -21 -21 -13 -2 1 -11 -7 -19 -18 -9 -11 -16
-15 -16 -8 0 13 19 28 35 28 6 0 10 6 10 13 0 6 5 12 10 13 6 1 18 6 29 11 15
8 16 12 5 19 -9 6 -4 8 16 6 20 -1 29 2 27 11 -1 8 2 11 8 7 5 -3 18 -1 27 5
15 10 15 11 1 6 -19 -5 -19 14 0 37 10 12 10 16 0 19 -8 3 -6 6 5 11 9 3 19 1
23 -5 5 -7 2 -8 -6 -3 -8 5 -11 4 -6 -3 3 -6 -1 -18 -10 -26 -8 -9 -12 -16 -7
-16 12 0 35 16 36 26 1 5 7 8 12 6 6 -2 4 2 -2 9 -17 17 -17 66 0 72 10 4 10
6 0 6 -7 1 -13 12 -13 25 0 13 6 27 13 30 6 3 3 4 -8 1 -15 -4 -21 0 -22 15
-1 11 2 22 8 25 5 3 6 -1 3 -9 -4 -11 0 -16 12 -16 11 0 15 4 9 8 -15 11 -17
32 -3 32 10 0 10 2 0 9 -19 12 -12 97 8 93 9 -1 3 8 -12 22 -26 23 -31 47 -13
63 4 4 5 3 2 -3 -3 -6 0 -11 8 -11 11 0 12 4 4 14 -6 7 -9 28 -7 47 2 21 0 32
-7 30 -13 -5 -17 33 -4 41 5 3 6 -1 3 -9 -4 -11 0 -16 12 -16 11 0 15 4 9 8
-15 11 -17 32 -3 32 10 0 10 2 0 9 -19 12 -12 97 8 93 9 -1 5 7 -10 21 -23 20
-39 84 -18 71 5 -3 6 -9 4 -13 -3 -4 1 -8 8 -8 11 0 12 5 3 21 -7 12 -14 23
-17 26 -3 3 -6 14 -8 25 -2 17 0 17 11 -4 9 -15 17 -20 21 -12 4 6 2 11 -4 11
-7 0 -11 19 -9 53 1 28 -3 62 -9 74 -8 14 -9 24 -2 28 6 4 7 11 4 17 -4 6 0
14 7 19 11 7 10 9 -4 9 -10 0 -15 5 -12 10 4 6 10 8 15 5 5 -3 12 0 16 6 4 8
3 9 -4 5 -7 -4 -12 -2 -12 4 0 6 -4 9 -8 6 -4 -2 -8 4 -8 14 0 16 2 16 26 3
21 -13 22 -13 8 0 -20 16 -25 32 -6 21 7 -4 8 -3 4 4 -4 6 -12 9 -20 6 -7 -3
-13 1 -13 9 0 9 8 13 21 10 16 -4 18 -2 7 5 -11 8 -11 11 0 16 8 3 5 4 -7 1
-13 -4 -21 0 -21 8 0 8 6 14 13 13 7 0 13 4 13 9 0 6 -6 9 -13 7 -7 -1 -13 4
-13 12 0 8 8 11 20 8 19 -5 19 -4 -1 16 -12 12 -22 28 -21 35 0 9 2 9 6 0 8
-21 22 -15 16 7 -3 11 -8 20 -12 20 -4 0 -7 10 -8 23 -2 22 -2 22 11 -2 9 -15
16 -20 20 -12 4 6 2 11 -4 11 -7 0 -10 19 -8 53 2 40 7 51 18 49 9 -1 3 8 -12
22 -26 23 -31 47 -13 63 4 4 5 3 2 -3 -3 -6 0 -11 7 -11 8 0 13 7 11 16 -1 9
-10 15 -19 13 -9 -2 -16 2 -16 8 0 6 4 9 9 6 5 -3 11 3 14 15 3 13 0 22 -10
26 -12 5 -12 7 -2 14 8 5 17 3 22 -4 6 -8 7 -8 4 3 -2 8 -11 14 -19 12 -8 -1
-15 4 -15 12 0 8 8 12 21 9 16 -4 18 -2 7 5 -11 8 -11 11 0 16 8 3 5 4 -7 1
-13 -4 -21 0 -21 8 0 8 6 14 13 13 7 0 12 3 11 9 -1 5 -7 9 -13 7 -6 -1 -11 4
-11 12 0 8 8 11 20 8 19 -5 19 -4 -1 16 -12 12 -22 28 -21 35 0 10 2 10 6 0 8
-21 22 -15 16 7 -3 11 -8 20 -12 20 -4 0 -7 10 -8 23 -2 22 -2 22 11 -2 9 -15
16 -20 20 -12 4 6 2 11 -4 11 -7 0 -11 19 -9 53 1 28 -3 62 -9 74 -8 14 -9 24
-2 28 6 4 7 11 4 17 -4 6 0 14 7 19 11 7 10 9 -4 9 -10 0 -15 5 -12 10 4 6 10
8 15 5 5 -3 12 0 16 6 4 8 3 9 -4 5 -7 -4 -12 -2 -12 4 0 6 -3 9 -7 7 -5 -3
-9 7 -9 21 -1 15 1 21 3 14 3 -7 14 -17 26 -23 20 -9 20 -9 5 4 -10 8 -18 22
-18 31 0 9 -4 16 -8 16 -4 0 -8 10 -9 23 -2 22 -2 22 11 -2 9 -15 16 -20 20
-12 4 6 2 11 -4 11 -7 0 -11 19 -9 53 1 28 -3 62 -9 74 -8 14 -9 24 -2 28 6 4
7 11 4 17 -4 6 0 14 7 19 11 7 10 9 -4 9 -10 0 -15 5 -12 10 4 6 10 8 15 5 5
-3 12 0 16 6 4 8 3 9 -4 5 -7 -4 -12 -2 -12 4 0 6 -4 9 -8 6 -4 -2 -8 4 -8 14
0 16 2 16 26 3 21 -13 22 -13 8 0 -20 16 -25 32 -6 21 7 -4 8 -3 4 4 -4 6 -12
9 -20 6 -7 -3 -13 1 -13 9 0 9 8 13 21 10 16 -4 18 -2 7 5 -11 8 -11 11 0 16
8 3 5 4 -7 1 -13 -4 -21 0 -21 8 0 8 6 14 13 13 7 0 13 4 13 9 0 6 -6 9 -13 7
-7 -1 -13 4 -13 12 0 8 8 11 20 8 19 -5 19 -4 -1 16 -12 12 -22 28 -21 35 0
10 2 10 6 0 8 -21 22 -15 16 7 -3 11 -8 20 -12 20 -4 0 -7 10 -8 23 -2 22 -2
22 11 -2 9 -15 16 -20 20 -12 4 6 2 11 -4 11 -7 0 -11 19 -9 53 1 29 0 57 -3
63 -3 5 -5 35 -3 66 1 36 -2 55 -8 51 -6 -3 -7 -1 -3 5 3 6 15 9 26 7 12 -2
18 0 15 6 -4 5 -10 7 -14 5 -4 -3 -13 -1 -21 5 -13 7 -12 9 2 9 9 0 20 4 23
10 3 6 -1 7 -9 4 -11 -4 -16 0 -16 11 0 10 5 13 12 9 7 -4 8 -3 4 5 -6 9 -11
9 -21 1 -10 -8 -15 -8 -21 1 -4 7 -3 9 3 6 11 -7 27 33 18 42 -3 2 -5 -1 -5
-7 0 -7 -5 -12 -11 -12 -5 0 -7 5 -4 10 3 6 -2 10 -12 10 -15 0 -16 2 -3 11
12 8 10 9 -10 7 -16 -2 -24 1 -22 10 1 8 -5 13 -15 12 -42 -5 -64 0 -57 13 5
8 2 8 -9 -2 -14 -11 -17 -11 -17 0 0 11 -2 11 -10 -1 -9 -13 -10 -13 -11 0 0
10 -3 8 -9 -5 -8 -19 -9 -19 -9 -1 -1 18 -2 18 -20 2 -14 -13 -21 -14 -27 -5
-5 8 -3 10 6 4 8 -5 11 -4 7 2 -7 11 -36 11 -55 -1 -7 -4 -12 -2 -13 6 0 7 -4
4 -9 -7 -7 -17 -9 -17 -9 -2 -1 9 -6 17 -12 17 -5 0 -7 -6 -3 -12 6 -10 4 -10
-8 0 -12 10 -18 10 -23 1 -6 -8 -10 -7 -16 2 -5 9 -9 10 -9 3 0 -16 -28 -26
-35 -13 -4 5 -1 8 6 7 6 -2 14 4 16 12 4 13 3 13 -6 0 -6 -8 -11 -11 -11 -6 0
6 -5 5 -12 -2 -13 -13 -32 -16 -24 -4 2 4 -6 8 -19 8 -13 0 -21 -4 -19 -8 3
-4 0 -8 -5 -8 -6 0 -11 4 -11 8 0 4 -9 8 -19 8 -11 0 -17 -4 -15 -8 3 -4 0 -8
-5 -8 -6 0 -11 6 -12 13 0 6 -4 3 -9 -8 l-9 -20 0 20 c-1 11 -5 16 -9 10 -8
-12 -42 -16 -42 -6 0 4 -7 8 -15 8 -8 0 -12 -4 -9 -9 3 -4 0 -8 -5 -8 -6 0
-11 4 -11 8 0 4 -9 8 -19 8 -11 0 -17 -4 -15 -8 3 -4 0 -8 -5 -8 -6 0 -11 6
-12 13 0 6 -4 3 -9 -8 l-9 -20 0 20 c-1 11 -5 16 -9 10 -8 -11 -42 -16 -42 -6
0 9 -43 7 -58 -3 -7 -4 -12 -2 -13 6 0 7 -4 4 -9 -7 -8 -19 -9 -19 -9 -1 -1
18 -2 18 -18 3 -16 -13 -21 -14 -37 -1 -14 10 -23 11 -33 3 -10 -9 -13 -8 -14
2 0 8 -4 5 -9 -6 -8 -19 -9 -19 -9 -1 -1 18 -2 18 -20 2 -14 -13 -21 -14 -27
-5 -5 8 -3 10 6 4 8 -5 11 -4 7 2 -7 11 -36 11 -55 -1 -7 -4 -12 -2 -13 6 0 7
-4 4 -9 -7 -8 -19 -9 -19 -9 -1 -1 18 -2 18 -20 2 -14 -13 -21 -14 -27 -5 -5
8 -3 10 6 4 9 -6 11 -4 5 4 -5 9 -10 10 -18 2 -13 -13 -30 -15 -23 -2 4 5 -1
8 -10 7 -8 -1 -20 -9 -25 -17 -7 -12 -9 -11 -9 3 0 9 -5 20 -12 24 -7 5 -8 3
-3 -6z m1270 -798 c-3 -3 -11 0 -18 7 -9 10 -8 11 6 5 10 -3 15 -9 12 -12z m0
-320 c-3 -3 -11 0 -18 7 -9 10 -8 11 6 5 10 -3 15 -9 12 -12z m-1445 -92 c0
-5 -5 -10 -11 -10 -5 0 -7 5 -4 10 3 6 8 10 11 10 2 0 4 -4 4 -10z m1451 -383
c-13 -13 -26 -3 -16 12 3 6 11 8 17 5 6 -4 6 -10 -1 -17z m-6 -485 c-3 -3 -11
0 -18 7 -9 10 -8 11 6 5 10 -3 15 -9 12 -12z m6 -235 c-13 -13 -26 -3 -16 12
3 6 11 8 17 5 6 -4 6 -10 -1 -17z m-881 -291 c0 -3 -4 -8 -10 -11 -5 -3 -10
-1 -10 4 0 6 5 11 10 11 6 0 10 -2 10 -4z m881 -29 c-13 -13 -26 -3 -16 12 3
6 11 8 17 5 6 -4 6 -10 -1 -17z m-1248 -212 c-3 -9 -8 -14 -10 -11 -3 3 -2 9
2 15 9 16 15 13 8 -4z m1240 -20 c-3 -8 -10 -15 -15 -15 -7 0 -6 5 1 13 6 8 7
18 3 22 -4 5 -2 5 5 1 7 -4 10 -13 6 -21z m-316 -335 c-1 -22 -23 -35 -32 -19
-4 5 -11 6 -17 3 -7 -4 -8 -2 -4 4 4 6 13 9 21 6 8 -4 18 1 21 10 8 22 13 20
11 -4z m-106 -69 c5 8 9 9 9 3 0 -6 -6 -16 -13 -22 -10 -8 -13 -6 -14 11 0 12
1 16 4 8 5 -11 7 -11 14 0z m-109 -68 c-6 -2 -10 -8 -8 -12 3 -4 -1 -8 -9 -8
-11 0 -12 4 -4 14 6 7 17 13 23 12 7 0 6 -2 -2 -6z m-168 -153 c-20 -20 -20
-20 -21 2 -2 17 0 19 7 8 8 -12 10 -12 16 3 3 10 9 15 12 12 3 -3 -3 -14 -14
-25z m-180 -145 c-3 -8 -12 -11 -20 -8 -20 7 -17 18 5 20 13 1 18 -3 15 -12z
m-74 -35 c0 -4 -7 -11 -16 -14 -13 -5 -14 -4 -6 7 7 8 8 18 4 22 -4 5 -1 5 6
1 6 -4 12 -11 12 -16z m-55 -40 c-17 -19 -35 -19 -35 0 0 5 7 6 17 3 12 -5 14
-3 8 7 -5 9 -4 11 3 6 7 -4 12 -2 12 5 0 7 3 9 7 6 3 -4 -2 -16 -12 -27z m-85
10 c8 -5 11 -10 5 -10 -5 0 -17 5 -25 10 -8 5 -10 10 -5 10 6 0 17 -5 25 -10z
m40 -11 c0 -5 -4 -9 -8 -9 -5 0 -9 7 -9 15 0 8 4 12 9 9 4 -3 8 -9 8 -15z"/>
<path d="M2776 4013 c-6 -14 -5 -15 5 -6 7 7 10 15 7 18 -3 3 -9 -2 -12 -12z"/>
<path d="M3570 4015 c0 -7 30 -13 34 -7 3 4 -4 9 -15 9 -10 1 -19 0 -19 -2z"/>
<path d="M3710 3816 c0 -2 7 -7 16 -10 8 -3 12 -2 9 4 -6 10 -25 14 -25 6z"/>
<path d="M3713 3785 c0 -8 4 -12 9 -9 5 3 6 10 3 15 -9 13 -12 11 -12 -6z"/>
<path d="M2220 3770 c0 -5 5 -10 11 -10 5 0 7 5 4 10 -3 6 -8 10 -11 10 -2 0
-4 -4 -4 -10z"/>
<path d="M2215 3521 c-3 -5 -2 -12 3 -15 5 -3 9 1 9 9 0 17 -3 19 -12 6z"/>
<path d="M3705 3271 c-3 -5 0 -13 6 -17 7 -4 9 -3 5 4 -3 5 0 13 6 15 9 4 10
6 1 6 -6 1 -14 -3 -18 -8z"/>
<path d="M2220 3130 c0 -5 5 -10 11 -10 5 0 7 5 4 10 -3 6 -8 10 -11 10 -2 0
-4 -4 -4 -10z"/>
<path d="M1735 3032 c-2 -2 -1 -10 2 -18 4 -11 8 -11 20 2 9 8 23 12 31 9 9
-3 13 -2 8 2 -8 8 -54 12 -61 5z"/>
<path d="M2213 2995 c0 -8 4 -12 9 -9 5 3 6 10 3 15 -9 13 -12 11 -12 -6z"/>
<path d="M3705 2951 c-3 -5 0 -13 6 -17 7 -4 9 -3 5 4 -3 5 0 13 6 15 9 4 10
6 1 6 -6 1 -14 -3 -18 -8z"/>
<path d="M2890 2330 c0 -5 5 -10 11 -10 5 0 7 -6 3 -12 -4 -7 -3 -10 1 -5 5 4
18 -1 29 -10 12 -10 8 -3 -8 15 -32 35 -36 37 -36 22z"/>
<path d="M1365 2220 c-3 -6 1 -7 9 -4 18 7 21 14 7 14 -6 0 -13 -4 -16 -10z"/>
<path d="M3705 1991 c-3 -5 0 -13 6 -17 7 -4 9 -3 5 4 -3 5 0 13 6 15 9 4 10
6 1 6 -6 1 -14 -3 -18 -8z"/>
<path d="M2973 1975 c0 -8 4 -15 9 -15 4 0 8 4 8 9 0 6 -4 12 -8 15 -5 3 -9
-1 -9 -9z"/>
<path d="M2970 1789 c0 -5 5 -7 10 -4 6 3 10 8 10 11 0 2 -4 4 -10 4 -5 0 -10
-5 -10 -11z"/>
<path d="M3700 1755 c0 -7 30 -13 34 -7 3 4 -4 9 -15 9 -10 1 -19 0 -19 -2z"/>
<path d="M2907 1498 c-10 -11 -17 -22 -14 -24 2 -2 12 5 22 16 23 26 16 33 -8
8z"/>
<path d="M3700 1435 c0 -7 30 -13 34 -7 3 4 -4 9 -15 9 -10 1 -19 0 -19 -2z"/>
<path d="M2690 1366 c0 -2 7 -7 16 -10 8 -3 12 -2 9 4 -6 10 -25 14 -25 6z"/>
<path d="M2475 1210 c3 -5 8 -10 11 -10 2 0 4 5 4 10 0 6 -5 10 -11 10 -5 0
-7 -4 -4 -10z"/>
<path d="M2320 1099 c0 -5 5 -7 10 -4 6 3 10 8 10 11 0 2 -4 4 -10 4 -5 0 -10
-5 -10 -11z"/>
<path d="M706 1012 c-3 -5 1 -9 9 -9 8 0 12 4 9 9 -3 4 -7 8 -9 8 -2 0 -6 -4
-9 -8z"/>
<path d="M3475 877 c-13 -10 -15 -16 -6 -21 7 -5 15 -5 18 -2 4 3 0 6 -8 6 -8
1 -3 7 11 15 14 8 20 14 14 15 -5 0 -18 -6 -29 -13z"/>
<path d="M2126 823 c-6 -14 -5 -15 5 -6 7 7 10 15 7 18 -3 3 -9 -2 -12 -12z"/>
<path d="M1110 730 c0 -5 5 -10 11 -10 5 0 7 5 4 10 -3 6 -8 10 -11 10 -2 0
-4 -4 -4 -10z"/>
<path d="M3143 623 c-3 -7 -10 -10 -16 -6 -6 4 -7 1 -2 -7 6 -10 11 -10 20 3
7 9 14 14 17 11 4 -3 8 -1 12 4 3 5 -2 9 -10 9 -9 0 -18 -6 -21 -14z"/>
<path d="M2130 570 c6 -11 13 -20 16 -20 2 0 0 9 -6 20 -6 11 -13 20 -16 20
-2 0 0 -9 6 -20z"/>
<path d="M3066 552 c-3 -5 1 -9 9 -9 8 0 12 4 9 9 -3 4 -7 8 -9 8 -2 0 -6 -4
-9 -8z"/>
<path d="M1453 465 c0 -8 4 -12 8 -9 4 2 10 -2 12 -8 4 -8 6 -9 6 -2 1 6 -5
17 -12 23 -10 8 -14 7 -14 -4z"/>
<path d="M1665 321 c-3 -5 0 -13 6 -17 8 -5 9 -3 4 6 -5 8 -3 11 6 8 8 -3 13
-12 11 -19 -3 -11 -1 -12 10 -1 11 11 10 14 -2 22 -19 12 -27 12 -35 1z"/>
<path d="M1823 305 c-7 -8 -9 -16 -4 -19 5 -3 12 1 15 10 8 22 4 25 -11 9z"/>
</g>
</svg>
